<svg width="70" height="70" viewBox="0 0 70 70" fill="none" xmlns="http://www.w3.org/2000/svg">
<path d="M0 35C0 15.67 15.67 0 35 0C54.33 0 70 15.67 70 35C70 54.33 54.33 70 35 70C15.67 70 0 54.33 0 35Z" fill="url(#paint0_linear_971_4161)"/>
<path d="M23.833 46.2788H46.1475C48.6865 46.2788 49.9805 45.0093 49.9805 42.4946V29.7139C49.9805 27.1992 48.6865 25.9419 46.1475 25.9419H42.6562C41.6919 25.9419 41.3989 25.7466 40.8496 25.1362L39.873 24.0376C39.2627 23.3662 38.6401 23 37.3828 23H32.5122C31.2549 23 30.6323 23.3662 30.022 24.0376L29.0454 25.1362C28.4961 25.7344 28.1909 25.9419 27.2388 25.9419H23.833C21.2817 25.9419 20 27.1992 20 29.7139V42.4946C20 45.0093 21.2817 46.2788 23.833 46.2788ZM23.8574 44.3135C22.6611 44.3135 21.9653 43.6665 21.9653 42.397V29.8237C21.9653 28.5542 22.6611 27.9072 23.8574 27.9072H27.7271C28.8257 27.9072 29.4238 27.6997 30.0342 27.0161L30.9863 25.9419C31.6821 25.1606 32.0483 24.9653 33.1226 24.9653H36.7725C37.8467 24.9653 38.2129 25.1606 38.9087 25.9419L39.8608 27.0161C40.4712 27.6997 41.0693 27.9072 42.168 27.9072H46.1108C47.3193 27.9072 48.0151 28.5542 48.0151 29.8237V42.397C48.0151 43.6665 47.3193 44.3135 46.1108 44.3135H23.8574ZM34.9902 42.5557C38.6768 42.5557 41.6431 39.6016 41.6431 35.8784C41.6431 32.1675 38.689 29.2134 34.9902 29.2134C31.2915 29.2134 28.3252 32.1675 28.3252 35.8784C28.3252 39.6016 31.2915 42.5557 34.9902 42.5557ZM42.1436 31.3862C42.1436 32.2407 42.8516 32.9121 43.6816 32.9121C44.4995 32.8999 45.1953 32.2285 45.1953 31.3862C45.1953 30.5806 44.4995 29.8726 43.6816 29.8726C42.8516 29.8726 42.1436 30.5806 42.1436 31.3862ZM34.9902 40.7002C32.3413 40.7002 30.1685 38.564 30.1685 35.8784C30.1685 33.2051 32.3291 31.0566 34.9902 31.0566C37.6514 31.0566 39.7998 33.2051 39.7998 35.8784C39.7998 38.564 37.6514 40.7002 34.9902 40.7002Z" fill="white"/>
<defs>
<linearGradient id="paint0_linear_971_4161" x1="0" y1="0" x2="70" y2="70" gradientUnits="userSpaceOnUse">
<stop stop-color="#C9123E"/>
<stop offset="1" stop-color="#CB32CE"/>
</linearGradient>
</defs>
</svg>
