<svg width="600" height="638" viewBox="0 0 600 638" fill="none" xmlns="http://www.w3.org/2000/svg">
<path fill-rule="evenodd" clip-rule="evenodd" d="M508.346 236.185V191.097L300 98.7018L279.575 107.76V529.492L300 538.55L320.425 529.492V341.61H374.999V299.943H320.425V153.212L417.727 196.174V486.342L458.578 468.226V214.21L508.346 236.185ZM550.919 473.58V473.847L300 585.122L49.0811 473.847V473.58L47.8946 473.053V164.194L49.0811 163.667V163.405L300 52.1303L550.919 163.405V163.667L552.105 164.194V473.054L550.919 473.58ZM137.525 170.754L195.341 358.8V145.115L236.192 126.999V510.253L195.341 492.137V490.187L193.201 490.845L132.529 293.508V464.282L91.6782 446.166V191.086L137.525 170.754ZM600 504.207V133.04L300 0L0 133.04V504.207L300 637.247L600 504.207Z" fill="white"/>
</svg>
